<?xml version="1.0" standalone="no"?>
<!DOCTYPE svg PUBLIC "-//W3C//DTD SVG 20010904//EN"
 "http://www.w3.org/TR/2001/REC-SVG-20010904/DTD/svg10.dtd">
<svg version="1.0" xmlns="http://www.w3.org/2000/svg"
 width="300.000000pt" height="90.000000pt" viewBox="0 0 300.000000 90.000000"
 preserveAspectRatio="xMidYMid meet">

<g transform="translate(0.000000,90.000000) scale(0.100000,-0.100000)"
fill="#000000" stroke="none">
<path d="M125 692 c-51 -24 -75 -59 -81 -120 -6 -54 15 -104 57 -135 28 -20
103 -27 152 -14 26 7 27 9 27 82 l0 75 -51 0 c-36 0 -49 -4 -47 -12 3 -7 17
-14 31 -16 25 -3 27 -7 27 -53 0 -44 -2 -49 -22 -50 -71 -4 -101 9 -123 51
-48 92 23 192 125 175 24 -4 41 -2 45 5 10 17 3 20 -51 26 -36 3 -60 0 -89
-14z"/>
<path d="M327 703 c-4 -3 -7 -69 -7 -145 l0 -138 86 0 c64 0 85 3 82 13 -3 7
-28 13 -66 15 l-62 3 0 129 c0 102 -3 130 -13 130 -8 0 -17 -3 -20 -7z"/>
<path d="M553 690 c-43 -26 -63 -68 -63 -132 0 -94 66 -159 146 -144 95 18
140 124 95 223 -32 70 -112 94 -178 53z m120 -36 c51 -50 48 -145 -5 -189 -54
-45 -121 -17 -138 58 -25 113 72 202 143 131z"/>
<path d="M803 703 c-10 -3 -13 -42 -13 -143 0 -137 0 -138 24 -144 13 -3 45
-2 72 3 81 15 109 78 59 131 l-25 27 20 18 c37 33 21 86 -31 104 -33 11 -84
13 -106 4z m101 -39 c34 -33 3 -84 -51 -84 -21 0 -23 5 -23 50 0 49 1 50 29
50 16 0 37 -7 45 -16z m10 -130 c20 -19 21 -58 2 -73 -8 -7 -30 -15 -50 -18
l-36 -6 0 57 0 56 34 0 c19 0 42 -7 50 -16z"/>
<path d="M1102 698 c-9 -12 -112 -261 -112 -273 0 -3 8 -5 18 -5 13 0 28 28
61 115 24 64 47 118 51 120 3 2 26 -46 49 -108 48 -123 52 -130 74 -125 13 2
5 30 -41 143 -56 138 -75 163 -100 133z"/>
<path d="M1287 704 c-4 -4 -7 -70 -7 -146 l0 -138 80 0 c64 0 80 3 80 15 0 12
-13 15 -60 15 l-59 0 -3 127 c-3 117 -10 148 -31 127z"/>
<path d="M2505 698 c-74 -40 -57 -109 38 -153 49 -23 60 -60 26 -88 -22 -18
-48 -19 -91 -2 -14 5 -18 2 -18 -13 0 -15 9 -21 36 -26 50 -10 90 1 114 31 39
50 18 99 -61 137 -34 16 -45 27 -47 48 -4 34 27 52 74 43 26 -4 34 -2 34 8 0
27 -66 37 -105 15z"/>
<path d="M2720 703 c-30 -11 -50 -37 -50 -64 0 -45 10 -59 59 -84 58 -29 75
-48 66 -75 -10 -31 -45 -44 -88 -32 -36 10 -55 2 -42 -18 8 -13 70 -23 100
-16 37 9 65 42 65 75 0 47 -10 60 -59 86 -62 31 -76 48 -62 74 14 25 43 34 81
26 23 -5 30 -3 30 8 0 24 -58 35 -100 20z"/>
<path d="M1840 560 c0 -133 1 -140 20 -140 18 0 20 7 20 65 l0 65 80 0 80 0 0
-65 c0 -58 2 -65 20 -65 19 0 20 7 20 140 0 133 -1 140 -20 140 -18 0 -20 -7
-20 -60 l0 -60 -80 0 -80 0 0 60 c0 53 -2 60 -20 60 -19 0 -20 -7 -20 -140z"/>
<path d="M2140 560 c0 -133 1 -140 20 -140 19 0 20 7 20 140 0 133 -1 140 -20
140 -19 0 -20 -7 -20 -140z"/>
<path d="M2230 685 c0 -11 11 -15 40 -15 l40 0 0 -125 c0 -118 1 -125 20 -125
19 0 20 7 20 125 l0 125 45 0 c33 0 45 4 45 15 0 12 -18 15 -105 15 -87 0
-105 -3 -105 -15z"/>
<path d="M2891 687 c-16 -16 -14 -42 6 -58 15 -13 15 -12 3 7 -8 13 -10 29 -5
40 7 16 9 15 14 -11 7 -34 22 -35 35 -2 8 19 10 20 13 4 3 -10 -1 -26 -9 -35
-12 -15 -11 -16 5 -3 22 17 22 45 0 62 -9 8 -14 9 -10 3 4 -7 -1 -18 -10 -25
-15 -12 -16 -12 -11 3 8 20 -15 31 -31 15z"/>
<path d="M1615 650 c-3 -5 1 -10 9 -10 9 0 16 5 16 10 0 6 -4 10 -9 10 -6 0
-13 -4 -16 -10z"/>
<path d="M1610 601 c0 -12 5 -21 10 -21 6 0 10 6 10 14 0 8 -4 18 -10 21 -5 3
-10 -3 -10 -14z"/>
<path d="M1610 550 c0 -13 5 -20 13 -17 6 2 12 10 12 17 0 7 -6 15 -12 18 -8
2 -13 -5 -13 -18z"/>
<path d="M1650 535 c0 -10 7 -15 18 -13 21 4 19 22 -2 26 -10 2 -16 -3 -16
-13z"/>
<path d="M1610 504 c0 -8 5 -12 10 -9 6 4 8 11 5 16 -9 14 -15 11 -15 -7z"/>
<path d="M1634 475 c-9 -19 -9 -27 2 -36 16 -13 64 -4 64 12 0 6 -7 9 -15 6
-8 -4 -17 -2 -20 3 -4 6 1 10 9 10 9 0 16 7 16 15 0 25 -44 18 -56 -10z"/>
<path d="M1710 474 c0 -14 3 -14 15 -4 8 7 15 14 15 16 0 2 -7 4 -15 4 -8 0
-15 -7 -15 -16z"/>
</g>
</svg>
